HIERARCHY
ROOT Hips
{
 OFFSET 0.000000 0.000000 0.000000
 CHANNELS 6 Xposition Yposition Zposition Yrotation Xrotation Zrotation
 JOINT Chest
 {
  OFFSET 0.000000 14.374500 -0.011500
  CHANNELS 3 Yrotation Xrotation Zrotation
  JOINT Chest2
  {
   OFFSET 0.000000 9.203400 0.023400
   CHANNELS 3 Yrotation Xrotation Zrotation
   JOINT Chest3
   {
    OFFSET 0.000000 9.162700 0.000000
    CHANNELS 3 Yrotation Xrotation Zrotation
    JOINT Chest4
    {
     OFFSET 0.000000 9.153300 0.000000
     CHANNELS 3 Yrotation Xrotation Zrotation
     JOINT Neck
     {
      OFFSET 0.000000 13.353600 0.000000
      CHANNELS 3 Yrotation Xrotation Zrotation
      JOINT Head
      {
       OFFSET 0.000000 8.573800 0.049400
       CHANNELS 3 Yrotation Xrotation Zrotation
       End Site
       {
        OFFSET 0.000000 16.219200 0.026100
       }
      }
     }
     JOINT RightCollar
     {
      OFFSET -2.497100 8.876100 0.000000
      CHANNELS 3 Yrotation Xrotation Zrotation
      JOINT RightShoulder
      {
       OFFSET -12.289200 0.000000 0.000000
       CHANNELS 3 Yrotation Xrotation Zrotation
       JOINT RightElbow
       {
        OFFSET 0.000000 -28.194900 0.000000
        CHANNELS 3 Yrotation Xrotation Zrotation
        JOINT RightWrist
        {
         OFFSET 0.000000 -23.009700 0.007900
         CHANNELS 3 Yrotation Xrotation Zrotation
         End Site
         {
          OFFSET 0.000000 -17.151500 0.000000
         }
        }
       }
      }
     }
     JOINT LeftCollar
     {
      OFFSET 2.497100 8.876100 0.000000
      CHANNELS 3 Yrotation Xrotation Zrotation
      JOINT LeftShoulder
      {
       OFFSET 12.289200 0.000000 0.000000
       CHANNELS 3 Yrotation Xrotation Zrotation
       JOINT LeftElbow
       {
        OFFSET 0.000000 -28.194900 0.000000
        CHANNELS 3 Yrotation Xrotation Zrotation
        JOINT LeftWrist
        {
         OFFSET 0.000000 -23.009700 0.007900
         CHANNELS 3 Yrotation Xrotation Zrotation
         End Site
         {
          OFFSET 0.000000 -17.151500 0.000000
         }
        }
       }
      }
     }
    }
   }
  }
 }
 JOINT RightHip
 {
  OFFSET -11.777600 0.056700 0.005700
  CHANNELS 3 Yrotation Xrotation Zrotation
  JOINT RightKnee
  {
   OFFSET 0.000000 -39.966000 -0.004200
   CHANNELS 3 Yrotation Xrotation Zrotation
   JOINT RightAnkle
   {
    OFFSET 0.000000 -41.981900 0.027400
    CHANNELS 3 Yrotation Xrotation Zrotation
    JOINT RightToe
    {
     OFFSET 0.000000 -9.910600 16.950100
     CHANNELS 3 Yrotation Xrotation Zrotation
     End Site
     {
      OFFSET 0.000000 -1.461000 6.191600
     }
    }
   }
  }
 }
 JOINT LeftHip
 {
  OFFSET 11.777600 0.056700 0.005700
  CHANNELS 3 Yrotation Xrotation Zrotation
  JOINT LeftKnee
  {
   OFFSET 0.000000 -39.966000 -0.004200
   CHANNELS 3 Yrotation Xrotation Zrotation
   JOINT LeftAnkle
   {
    OFFSET 0.000000 -41.981900 0.027400
    CHANNELS 3 Yrotation Xrotation Zrotation
    JOINT LeftToe
    {
     OFFSET 0.000000 -9.910600 16.950100
     CHANNELS 3 Yrotation Xrotation Zrotation
     End Site
     {
      OFFSET 0.000000 -1.461000 6.191600
     }
    }
   }
  }
 }
}
MOTION
Frames: 9
Frame Time: 0.008333
0.000000 91.618700 0.000000 0.000000 -5.767877 0.000000 0.000000 11.653817 0.000000 0.000000 -5.885947 0.000000 0.000000 -0.000000 0.000000 0.000000 -0.000000 0.000000 0.000000 12.528835 0.000000 0.000000 0.711642 0.000000 0.000000 -0.000000 0.000000 0.000000 0.000000 -90.000000 0.000000 -2.309062 0.000000 0.000000 2.309062 0.000000 0.000000 -0.000000 0.000000 0.000000 -0.000000 90.000000 0.000000 -2.309062 0.000000 0.000000 2.309062 0.000000 0.000000 8.520406 0.000000 0.000000 1.905762 0.000000 -0.000000 -4.658285 0.000000 0.000000 -0.000000 0.000000 0.000000 8.520406 0.000000 0.000000 1.905762 0.000000 -0.000000 -4.658285 0.000000 0.000000 -0.000000 0.000000
-3.595036 152.664801 86.281735 173.608066 -49.444531 -4.582357 6.020677 29.111391 2.435185 0.965339 5.500796 0.261716 1.552363 8.601915 0.436475 4.441046 23.206699 1.860151 2.871898 13.816473 5.031183 1.877730 -11.129507 4.754617 3.073176 -6.563280 -1.004332 8.744435 -13.439256 -2.350382 44.093028 -55.960159 -38.344286 26.370255 26.122807 -8.935148 -10.971763 -10.400809 1.714026 -8.464688 -17.650223 1.962476 -28.261635 -58.236184 11.495744 -21.251297 8.540552 19.320232 5.436768 -28.203409 2.924463 -62.381846 87.030289 -64.367590 4.554023 -26.113912 7.263559 0.031245 -0.197741 0.009828 -2.613424 -30.067308 -1.236888 144.219073 70.959186 156.551622 -2.425093 15.514434 -7.286664 0.264564 -10.337645 -1.853440
-4.658706 145.622169 87.891964 173.818340 -49.360584 -4.820479 5.963431 29.010556 2.519588 0.947164 5.512150 0.267699 1.559706 8.605830 0.439532 4.450890 23.208112 1.852355 3.021475 13.743444 5.021261 2.038483 -11.206356 4.706416 3.120087 -6.512411 -1.002072 8.711668 -13.477877 -2.357461 44.039090 -56.028892 -38.334068 26.336136 26.089598 -8.899413 -10.972870 -10.363727 1.714500 -8.408234 -17.668941 1.968800 -28.048019 -58.352885 11.236515 -21.221699 8.530684 19.307716 5.264327 -28.319241 3.029455 -63.339465 87.042066 -65.343308 4.562040 -26.204807 7.271653 -0.001991 -0.118627 -0.001150 -2.801191 -30.130100 -1.125580 144.171839 70.991572 156.488223 -2.367500 15.548499 -7.203026 0.034446 0.025342 0.020134
-5.536968 139.828113 89.213461 173.959354 -49.327824 -4.980899 5.914447 28.973750 2.579979 0.980281 5.507049 0.257500 1.541588 8.616695 0.449437 4.463197 23.205658 1.850554 3.176024 13.668992 5.000661 2.209853 -11.289948 4.648698 3.126781 -6.485537 -0.984439 8.715391 -13.484116 -2.375415 43.995750 -56.106356 -38.335667 26.318365 26.068156 -8.871378 -10.979807 -10.329681 1.712717 -8.368418 -17.675285 1.975582 -27.805304 -58.481859 10.971513 -21.185748 8.521146 19.298213 5.149738 -28.376202 3.113871 -64.117695 87.049915 -66.143732 4.544642 -26.275313 7.297189 -0.013291 -0.061750 -0.007765 -2.926113 -30.143083 -1.052828 144.149914 71.015858 156.461839 -2.350878 15.575541 -7.173920 0.010882 0.022346 0.006362
-6.173874 135.648470 90.164238 174.034136 -49.337610 -5.064286 5.887626 28.983091 2.612412 0.999540 5.507433 0.251735 1.546634 8.622920 0.449619 4.473571 23.204885 1.848481 3.337135 13.587010 4.975273 2.387507 -11.381455 4.583610 3.135315 -6.458933 -0.965323 8.739369 -13.441181 -2.405193 43.975926 -56.231366 -38.399739 26.346709 26.080257 -8.844230 -10.994104 -10.303975 1.715745 -8.334136 -17.672141 1.981642 -27.554534 -58.615830 10.711183 -21.137591 8.511671 19.299929 5.097266 -28.380288 3.172642 -64.710178 87.043758 -66.749837 4.528174 -26.320069 7.289202 -0.017883 -0.035998 -0.010452 -2.987899 -30.123112 -1.013696 144.136999 71.032732 156.443774 -2.347045 15.606451 -7.164000 0.004105 0.020622 0.002400
-6.575032 133.006706 90.768248 174.097774 -49.338540 -5.135039 5.883991 28.978332 2.642194 0.990549 5.513373 0.256738 1.562533 8.632709 0.446768 4.483222 23.205179 1.845941 3.498723 13.498623 4.946248 2.566171 -11.480284 4.513180 3.133116 -6.443489 -0.944258 8.734210 -13.416024 -2.409070 43.984739 -56.333349 -38.457130 26.318122 26.045675 -8.817217 -11.005788 -10.280786 1.720875 -8.322200 -17.671886 1.989507 -27.299768 -58.742842 10.466397 -21.077962 8.498419 19.311517 5.054325 -28.391823 3.220773 -65.168624 87.036602 -67.222737 4.498912 -26.351013 7.311551 -0.013333 -0.011496 -0.007795 -3.037882 -30.123745 -0.974059 144.123398 71.048525 156.420941 -2.337127 15.655365 -7.152638 -0.001547 0.009999 -0.000905
-6.798979 131.551955 91.103132 174.122527 -49.339198 -5.153584 5.892566 28.975396 2.647880 0.981844 5.518269 0.260196 1.575880 8.644555 0.445964 4.530012 23.233214 1.841441 3.625518 13.376536 4.929770 2.741244 -11.583882 4.440175 3.077451 -6.479278 -0.908274 8.742637 -13.364603 -2.403534 44.007183 -56.440071 -38.530566 26.270855 26.007071 -8.799527 -11.050960 -10.286451 1.748630 -8.330648 -17.680748 1.999987 -27.035860 -58.853177 10.231074 -21.014898 8.476292 19.319262 5.052589 -28.399845 3.241464 -65.510242 87.022400 -67.576447 4.496343 -26.369938 7.314252 -0.008785 -0.003811 -0.005137 -3.045372 -30.145848 -0.948650 144.133553 71.064661 156.412696 -2.355691 15.710048 -7.105993 -0.006507 -0.003179 -0.003805
-6.905210 130.859222 91.264858 174.129013 -49.349154 -5.159928 5.930841 28.980967 2.665204 0.967631 5.525827 0.261334 1.573584 8.649598 0.449611 4.530061 23.233741 1.844163 3.784819 13.286944 4.886076 2.906666 -11.689719 4.367448 3.099319 -6.450229 -0.908332 8.718850 -13.341612 -2.392532 44.048826 -56.528403 -38.619721 26.212872 25.974746 -8.800173 -11.037695 -10.267915 1.742780 -8.356734 -17.702184 2.012401 -26.759245 -58.947496 9.995549 -20.949986 8.448807 19.318632 5.064129 -28.400503 3.269652 -65.874154 86.997565 -67.949211 4.489478 -26.379078 7.315008 -0.000620 -0.001898 -0.000363 -3.046910 -30.142653 -0.939665 144.110782 71.076373 156.380560 -2.349121 15.747069 -7.093371 -0.010537 -0.002426 -0.006161
-6.948704 130.576590 91.332827 174.138041 -49.367616 -5.166287 5.943932 28.997618 2.675814 0.971735 5.532021 0.258946 1.561108 8.648094 0.452333 4.540065 23.241113 1.845234 3.934680 13.196989 4.845244 3.056913 -11.796373 4.298325 3.173861 -6.366057 -0.919086 8.636023 -13.404276 -2.391625 44.045933 -56.627110 -38.660189 26.171978 25.950131 -8.790025 -10.984972 -10.225348 1.720757 -8.429125 -17.733092 2.030339 -26.504993 -59.050120 9.790923 -20.884685 8.423555 19.309150 5.068294 -28.386103 3.283371 -66.035168 86.983601 -68.109164 4.473549 -26.385482 7.304853 0.001003 0.000192 0.000586 -3.047521 -30.130394 -0.934204 144.093795 71.085738 156.359055 -2.346275 15.778551 -7.087344 -0.012059 0.001141 -0.007051
